<svg width="16" height="16" viewBox="0 0 16 16" fill="none" xmlns="http://www.w3.org/2000/svg">
<path d="M11.6939 10.3222C11.5282 10.1562 11.3033 10.0629 11.0688 10.0629H10.8188C10.7506 10.0629 10.6849 10.0364 10.6358 9.98902C10.5351 9.89188 10.5283 9.73335 10.6151 9.62362C11.4418 8.57886 11.8935 7.28338 11.8925 5.94626C11.8925 4.7702 11.5438 3.62055 10.8904 2.64269C10.237 1.66484 9.30832 0.902692 8.22179 0.452634C7.13525 0.00257643 5.93966 -0.115179 4.7862 0.114258C3.63274 0.343696 2.57322 0.910021 1.74162 1.74162C0.910021 2.57322 0.343696 3.63274 0.114258 4.7862C-0.115179 5.93966 0.00257643 7.13525 0.452634 8.22179C0.902692 9.30832 1.66484 10.237 2.64269 10.8904C3.62055 11.5438 4.7702 11.8925 5.94626 11.8925C7.33012 11.8925 8.60899 11.416 9.62352 10.6148C9.73333 10.5281 9.89181 10.535 9.98894 10.6357C10.0364 10.6849 10.0629 10.7506 10.0629 10.8189V11.0688C10.0629 11.3033 10.1562 11.5282 10.3222 11.6939L13.9547 15.3192C14.3316 15.6953 14.942 15.695 15.3185 15.3185C15.695 14.942 15.6953 14.3316 15.3192 13.9547L11.6939 10.3222ZM5.94626 10.0629C3.66838 10.0629 1.82962 8.22413 1.82962 5.94626C1.82962 3.66838 3.66838 1.82962 5.94626 1.82962C8.22413 1.82962 10.0629 3.66838 10.0629 5.94626C10.0629 8.22413 8.22413 10.0629 5.94626 10.0629Z" fill="#5D5D5D"/>
</svg>
